#!OML:ASF H:\Pregnant\Project 1\Capture day 1\Session 1\femalepreg.ASF
:FULLY-SPECIFIED
:DEGREES
383
root 5.68652 15.7832 -4.51046 -161.937 -67.0023 -178.03
lowerback -13.5524 4.5436 3.22704
upperback -4.6105 5.41531 -1.85598
thorax 3.19274 2.56909 -2.87343
lowerneck -1.02602 19.081 22.3494
upperneck 9.18207 26.5858 -15.3273
head 8.01371 13.085 -5.23305
rclavicle -5.41036e-014 -3.47873e-016
rhumerus -39.0021 -13.6606 -74.7458
rradius 24.1995
rwrist 0.314883
rhand -16.8195 -18.8789
rfingers 7.12502
rthumb 9.40948 -48.6489
lclavicle -5.41036e-014 -3.47873e-016
lhumerus -27.8813 0.00617842 69.264
lradius 38.7549
lwrist 48.8558
lhand -33.526 -6.83336
lfingers 7.12502
lthumb -6.72197 23.0399
rfemur -44.251 25.5165 6.3128
rtibia 41.6245
rfoot -19.5642 -3.34841
rtoes -19.6205
lfemur -37.3739 -34.758 2.80427
ltibia 38.8749
lfoot -15.1188 -21.5221
ltoes -11.022
384
root 5.71496 15.8003 -4.59026 -161.994 -68.0204 -177.866
lowerback -13.4411 4.55281 3.54164
upperback -4.62001 5.39463 -1.85457
thorax 3.14874 2.55973 -3.05869
lowerneck -1.37804 18.9917 22.183
upperneck 9.18529 26.4129 -15.3779
head 8.02657 12.9776 -5.23501
rclavicle 2.07171e-015 -1.93318e-014
rhumerus -38.8623 -13.6647 -74.7364
rradius 24.1079
rwrist 0.424261
rhand -16.8884 -19.14
rfingers 7.12502
rthumb 9.34306 -48.913
lclavicle 2.07171e-015 -1.93318e-014
lhumerus -28.1557 0.505849 69.405
lradius 38.6885
lwrist 49.2157
lhand -33.4839 -6.55283
lfingers 7.12502
lthumb -6.6814 23.3218
rfemur -43.8487 25.0105 6.98416
rtibia 41.389
rfoot -19.4456 -3.60548
rtoes -19.1198
lfemur -38.203 -34.6072 3.36987
ltibia 39.5545
lfoot -14.2957 -21.6369
ltoes -10.5831
385
root 5.74283 15.8168 -4.66956 -162.175 -69.071 -177.562
lowerback -13.3612 4.57853 3.89461
upperback -4.61238 5.38964 -1.81972
thorax 3.14078 2.55903 -3.22487
lowerneck -1.78062 18.8826 21.9535
upperneck 9.21947 26.2117 -15.4334
head 8.04555 12.8517 -5.23274
rclavicle -4.70095e-015 4.54254e-015
rhumerus -38.7305 -13.5247 -74.7431
rradius 24.1481
rwrist 0.355585
rhand -16.9671 -19.3473
rfingers 7.12502
rthumb 9.26712 -49.1237
lclavicle -4.70095e-015 4.54254e-015
lhumerus -28.3872 0.906467 69.6482
lradius 38.5357
lwrist 49.5129
lhand -33.4308 -6.25799
lfingers 7.12502
lthumb -6.63014 23.6182
rfemur -43.4473 24.5223 7.69151
rtibia 41.127
rfoot -19.3097 -3.91
rtoes -18.6439
lfemur -39.0608 -34.4392 3.97363
ltibia 40.2723
lfoot -13.5228 -21.6836
ltoes -10.0878
386
root 5.77027 15.8325 -4.74954 -162.49 -70.1389 -177.121
lowerback -13.2901 4.62902 4.28048
upperback -4.59876 5.41319 -1.77466
thorax 3.14818 2.57286 -3.39288
lowerneck -2.22379 18.7503 21.673
upperneck 9.28196 25.9725 -15.4542
head 8.06206 12.7054 -5.2186
rclavicle -7.65849e-014 1.59028e-015
rhumerus -38.6376 -13.2862 -74.7797
rradius 24.3149
rwrist 0.124692
rhand -17.1047 -19.4978
rfingers 7.12502
rthumb 9.13429 -49.28
lclavicle -7.65849e-014 1.59028e-015
lhumerus -28.5785 1.16159 69.9628
lradius 38.2989
lwrist 49.7574
lhand -33.3908 -5.96685
lfingers 7.12502
lthumb -6.59147 23.9106
rfemur -43.0434 24.0829 8.424
rtibia 40.843
rfoot -19.1554 -4.28102
rtoes -18.1809
lfemur -39.9062 -34.2439 4.5901
ltibia 41.0059
lfoot -12.8177 -21.6585
ltoes -9.58204
387
root 5.79727 15.8473 -4.82874 -162.911 -71.2087 -176.565
lowerback -13.2288 4.70688 4.6915
upperback -4.58691 5.46933 -1.72657
thorax 3.16424 2.60281 -3.56538
lowerneck -2.69714 18.603 21.2854
upperneck 9.36741 25.6996 -15.365
head 8.05484 12.5438 -5.16389
rclavicle 6.50958e-014 1.61016e-014
rhumerus -38.5859 -12.9263 -74.8471
rradius 24.5995
rwrist -0.278164
rhand -17.3184 -19.6119
rfingers 7.12502
rthumb 8.92815 -49.403
lclavicle 6.50958e-014 1.61016e-014
lhumerus -28.7424 1.26492 70.3486
lradius 37.9823
lwrist 49.9487
lhand -33.3595 -5.69532
lfingers 7.12502
lthumb -6.56127 24.183
rfemur -42.6553 23.6644 9.16131
rtibia 40.5435
rfoot -18.9902 -4.68216
rtoes -17.7242
lfemur -40.7376 -34.0121 5.19625
ltibia 41.739
lfoot -12.1691 -21.5612
ltoes -9.05862
388
root 5.82384 15.8612 -4.90729 -163.418 -72.2676 -175.925
lowerback -13.1773 4.78195 5.08981
upperback -4.5809 5.52216 -1.66964
thorax 3.17757 2.63063 -3.72162
lowerneck -3.1403 18.457 20.8727
upperneck 9.44944 25.4289 -15.2176
head 8.0311 12.3874 -5.09082
rclavicle 5.95609e-014 9.74045e-015
rhumerus -38.5657 -12.4362 -74.9652
rradius 24.9752
rwrist -0.775198
rhand -17.6236 -19.6836
rfingers 7.12502
rthumb 8.63362 -49.487
lclavicle 5.95609e-014 9.74045e-015
lhumerus -28.9217 1.2982 70.7623
lradius 37.5901
lwrist 50.0651
lhand -33.3427 -5.46556
lfingers 7.12502
lthumb -6.54506 24.4133
rfemur -42.2826 23.2743 9.88649
rtibia 40.2351
rfoot -18.8155 -5.10846
rtoes -17.2765
lfemur -41.5298 -33.7438 5.7628
ltibia 42.4587
lfoot -11.5846 -21.3833
ltoes -8.56222
